<svg xmlns="http://www.w3.org/2000/svg" version="1.1" xmlns:xlink="http://www.w3.org/1999/xlink"
    xmlns:svgjs="http://svgjs.dev/svgjs" width="2000" height="1584" viewBox="0 0 2000 1584">
    <g transform="matrix(1,0,0,1,-1.102751726270185,-2.554838709677483)">
        <svg viewBox="0 0 313 248" data-background-color="#ffffff"
            preserveAspectRatio="xMidYMid meet" height="1584" width="2000"
            xmlns="http://www.w3.org/2000/svg" xmlns:xlink="http://www.w3.org/1999/xlink">
            <g id="tight-bounds" transform="matrix(1,0,0,1,0.17258064516127547,0.4000000000000057)">
                <svg viewBox="0 0 312.65483870967745 247.2" height="247.2"
                    width="312.65483870967745">
                    <g>
                        <svg viewBox="0 0 312.65483870967745 247.2" height="247.2"
                            width="312.65483870967745">
                            <g>
                                <svg viewBox="0 0 312.65483870967745 247.2" height="247.2"
                                    width="312.65483870967745">
                                    <g id="textblocktransform">
                                        <svg viewBox="0 0 312.65483870967745 247.2" height="247.2"
                                            width="312.65483870967745" id="textblock">
                                            <g>
                                                <svg viewBox="0 0 312.65483870967745 247.2"
                                                    height="247.2" width="312.65483870967745">
                                                    <g transform="matrix(1,0,0,1,0,0)">
                                                        <svg width="312.65483870967745"
                                                            viewBox="-0.05 -37 47.05 37.2"
                                                            height="247.2"
                                                            data-palette-color="#FEE832">
                                                            <path
                                                                d="M22.6-12.55Q22.6-10.5 21.75-8.75 20.9-7 19.45-5.58 18-4.15 16.07-3.08 14.15-2 12.03-1.28 9.9-0.55 7.68-0.18 5.45 0.2 3.4 0.2L3.4 0.2Q1.55 0.2-0.05-0.1L-0.05-0.1Q2.35-8.85 3.78-17.73 5.2-26.6 6.5-35.6L6.5-35.6Q9.1-36.15 11.9-36.58 14.7-37 17.7-37L17.7-37Q18.95-37 20.35-36.7 21.75-36.4 22.9-35.6 24.05-34.8 24.83-33.5 25.6-32.2 25.6-30.2L25.6-30.2Q25.6-28.3 24.98-26.65 24.35-25 23.38-23.65 22.4-22.3 21.15-21.33 19.9-20.35 18.6-19.85L18.6-19.85Q19.25-19.5 19.95-18.85 20.65-18.2 21.25-17.32 21.85-16.45 22.23-15.25 22.6-14.05 22.6-12.55L22.6-12.55ZM11.15-17.75Q10.95-16.55 10.78-15.63 10.6-14.7 10.45-13.85 10.3-13 10.13-12.08 9.95-11.15 9.75-9.9L9.75-9.9Q10.7-10 11.9-10.25 13.1-10.5 14.2-11.03 15.3-11.55 16.05-12.43 16.8-13.3 16.8-14.55L16.8-14.55Q16.8-15.45 16.32-16.05 15.85-16.65 15.13-17.05 14.4-17.45 13.55-17.63 12.7-17.8 11.95-17.8L11.95-17.8Q11.7-17.8 11.53-17.8 11.35-17.8 11.15-17.75L11.15-17.75ZM13.4-29.85Q13.3-29.3 13.18-28.55 13.05-27.8 12.9-26.98 12.75-26.15 12.58-25.35 12.4-24.55 12.3-23.95L12.3-23.95Q13.4-24.15 14.5-24.5 15.6-24.85 16.48-25.28 17.35-25.7 17.88-26.2 18.4-26.7 18.4-27.3L18.4-27.3Q18.4-28.05 17.95-28.53 17.5-29 16.78-29.3 16.05-29.6 15.28-29.73 14.5-29.85 13.9-29.85L13.9-29.85 13.4-29.85ZM44-12.55Q44-10.5 43.15-8.75 42.3-7 40.85-5.58 39.4-4.15 37.47-3.08 35.55-2 33.42-1.28 31.3-0.55 29.07-0.18 26.85 0.2 24.8 0.2L24.8 0.2Q22.95 0.2 21.35-0.1L21.35-0.1Q23.75-8.85 25.17-17.73 26.6-26.6 27.9-35.6L27.9-35.6Q30.5-36.15 33.3-36.58 36.1-37 39.1-37L39.1-37Q40.35-37 41.75-36.7 43.15-36.4 44.3-35.6 45.45-34.8 46.22-33.5 47-32.2 47-30.2L47-30.2Q47-28.3 46.37-26.65 45.75-25 44.77-23.65 43.8-22.3 42.55-21.33 41.3-20.35 40-19.85L40-19.85Q40.65-19.5 41.35-18.85 42.05-18.2 42.65-17.32 43.25-16.45 43.62-15.25 44-14.05 44-12.55L44-12.55ZM32.55-17.75Q32.35-16.55 32.17-15.63 32-14.7 31.85-13.85 31.7-13 31.52-12.08 31.35-11.15 31.15-9.9L31.15-9.9Q32.1-10 33.3-10.25 34.5-10.5 35.6-11.03 36.7-11.55 37.45-12.43 38.2-13.3 38.2-14.55L38.2-14.55Q38.2-15.45 37.72-16.05 37.25-16.65 36.52-17.05 35.8-17.45 34.95-17.63 34.1-17.8 33.35-17.8L33.35-17.8Q33.1-17.8 32.92-17.8 32.75-17.8 32.55-17.75L32.55-17.75ZM34.8-29.85Q34.7-29.3 34.57-28.55 34.45-27.8 34.3-26.98 34.15-26.15 33.97-25.35 33.8-24.55 33.7-23.95L33.7-23.95Q34.8-24.15 35.9-24.5 37-24.85 37.87-25.28 38.75-25.7 39.27-26.2 39.8-26.7 39.8-27.3L39.8-27.3Q39.8-28.05 39.35-28.53 38.9-29 38.17-29.3 37.45-29.6 36.67-29.73 35.9-29.85 35.3-29.85L35.3-29.85 34.8-29.85Z"
                                                                opacity="1"
                                                                transform="matrix(1,0,0,1,0,0)"
                                                                fill="#FEE832"
                                                                class="wordmark-text-0"
                                                                data-fill-palette-color="primary"
                                                                id="text-0"></path>
                                                        </svg>
                                                    </g>
                                                </svg>
                                            </g>
                                        </svg>
                                    </g>
                                </svg>
                            </g>
                            <g></g>
                        </svg>
                    </g>
                    <defs></defs>
                </svg>
                <rect width="312.65483870967745" height="247.2" fill="none" stroke="none"
                    visibility="hidden"></rect>
            </g>
        </svg>
    </g>
</svg>